<svg width="41" height="26" viewBox="0 0 41 26" fill="none" xmlns="http://www.w3.org/2000/svg">
<path d="M40.3167 22.1H38.6083V1.95C38.6077 1.43301 38.3915 0.937372 38.0072 0.571807C37.6229 0.206241 37.1018 0.000602099 36.5583 0H4.44167C3.89817 0.000602099 3.37711 0.206241 2.9928 0.571807C2.60848 0.937372 2.3923 1.43301 2.39167 1.95V22.1H0.683333C0.502102 22.1 0.328294 22.1685 0.200144 22.2904C0.0719938 22.4123 0 22.5776 0 22.75C0.00101736 23.6117 0.361313 24.4377 1.00184 25.047C1.64237 25.6563 2.51082 25.999 3.41667 26H37.5833C38.4892 25.999 39.3576 25.6563 39.9982 25.047C40.6387 24.4377 40.999 23.6117 41 22.75C41 22.5776 40.928 22.4123 40.7999 22.2904C40.6717 22.1685 40.4979 22.1 40.3167 22.1ZM4.44167 1.3H36.5583C36.7395 1.30019 36.9132 1.36874 37.0413 1.49059C37.1694 1.61245 37.2415 1.77767 37.2417 1.95V2.6H3.75833V1.95C3.75854 1.77767 3.8306 1.61245 3.9587 1.49059C4.08681 1.36874 4.2605 1.30019 4.44167 1.3V1.3ZM3.75833 3.9H37.2417V22.1H3.75833V3.9ZM1.48377 23.4H17.0833V24.7H3.41667C2.99284 24.6995 2.57955 24.5743 2.23348 24.3416C1.88742 24.1088 1.62554 23.7799 1.48377 23.4V23.4ZM18.45 24.7V23.4H22.55V24.7H18.45ZM37.5833 24.7H23.9167V23.4H39.5162C39.3745 23.7799 39.1126 24.1088 38.7665 24.3416C38.4205 24.5743 38.0072 24.6995 37.5833 24.7V24.7Z" fill="black"/>
</svg>
