<svg width="258" height="142" viewBox="0 0 258 142" fill="none" xmlns="http://www.w3.org/2000/svg">
<path d="M24.6522 128.876H233.348C237.666 128.876 241.174 125.856 241.174 122.144V6.73232C241.174 3.01993 237.666 0 233.348 0H24.6522C20.3367 0 16.8261 3.01993 16.8261 6.73232V122.144C16.8261 125.856 20.3389 128.876 24.6522 128.876ZM23.5342 6.73232C23.5342 6.20143 24.0351 5.77056 24.6522 5.77056H233.348C233.965 5.77056 234.466 6.20143 234.466 6.73232V122.144C234.466 122.674 233.965 123.105 233.348 123.105H24.6522C24.0351 123.105 23.5342 122.674 23.5342 122.144V6.73232ZM258 134.027V139.415C258 140.842 256.654 142 254.995 142H3.00523C1.34609 142 0 140.842 0 139.415V134.027H105.959C106.482 135.529 108.083 136.631 109.999 136.631H148.003C149.917 136.631 151.518 135.531 152.043 134.027H258Z" fill="black"/>
<path d="M183 13H221C223.761 13 226 15.2386 226 18V77H188C185.239 77 183 74.7614 183 72V13Z" fill="black"/>
<path d="M183 13H221C223.761 13 226 15.2386 226 18V29C208.689 34.3822 199.309 33.9819 183 29V13Z" fill="#FF6D10"/>
<path d="M187.991 59L226 59L220.625 65H183L187.991 59Z" fill="#FF6D10"/>
</svg>
