<svg width="35" height="30" viewBox="0 0 35 30" fill="none" xmlns="http://www.w3.org/2000/svg">
<path d="M26.0341 29.5606L23.4884 27.4355C23.1978 27.1929 22.6651 26.9937 22.2997 26.9937H18.877V27.4883C18.877 28.2971 18.2853 28.9581 17.5567 28.9581C16.8292 28.9581 16.2365 28.2982 16.2365 27.4883V26.9937H12.8137C12.4494 26.9937 11.9156 27.1929 11.624 27.4355L9.07931 29.5606C8.78767 29.8021 8.84558 30.0001 9.20986 30.0001H25.9025C26.2668 30.0001 26.3258 29.8032 26.0341 29.5606Z" fill="black"/>
<path d="M1 2.43271C1 1.61402 1.57061 0.999997 2.33141 1H32.6686C33.4294 1 34 1.61402 34 2.43271V21.5697C34 22.3884 33.4294 23.0024 32.6686 23.0024H17.6427V26.7888C17.6427 27.4029 17.5951 27.4029 17.5476 27.4029C17.5 27.4029 17.4524 27.4029 17.4524 26.7888V23.0024H2.33141C1.57061 23.0024 1 22.3884 1 21.5697V2.43271Z" stroke="black" stroke-width="2"/>
</svg>
