<svg width="228" height="165" viewBox="0 0 228 165" fill="none" xmlns="http://www.w3.org/2000/svg">
<path d="M171.41 162.545L154.284 150.674C152.329 149.318 148.746 148.205 146.288 148.205H123.262V150.968C123.262 155.486 119.282 159.179 114.38 159.179C109.486 159.179 105.499 155.493 105.499 150.968V148.205H82.4728C80.0221 148.205 76.4312 149.318 74.4693 150.674L57.3504 162.545C55.3885 163.893 55.7781 165 58.2287 165H170.525C172.975 165 173.372 163.9 171.41 162.545Z" fill="black"/>
<path d="M3 11.0034C3 6.43004 6.83862 2.99999 11.9568 3H216.043C221.161 3 225 6.43004 225 11.0034V117.906C225 122.48 221.161 125.91 216.043 125.91H114.96V147.062C114.96 150.492 114.64 150.492 114.32 150.492C114 150.492 113.68 150.492 113.68 147.062V125.91H11.9568C6.83862 125.91 3 122.48 3 117.906V11.0034Z" stroke="black" stroke-width="5"/>
<path d="M168 13H206C208.761 13 211 15.2386 211 18V77H173C170.239 77 168 74.7614 168 72V13Z" fill="black"/>
<path d="M168 13H206C208.761 13 211 15.2386 211 18V29C193.689 34.3822 184.309 33.9819 168 29V13Z" fill="#FF6D10"/>
<path d="M172.991 59L211 59L205.625 65H168L172.991 59Z" fill="#FF6D10"/>
</svg>
